<svg xmlns="http://www.w3.org/2000/svg" xmlns:xlink="http://www.w3.org/1999/xlink" viewBox="0 0 128 186"><defs><style>.cls-1{isolation:isolate;}.cls-2{fill:url(#linear-gradient);}.cls-3,.cls-7{opacity:0.5;}.cls-3,.cls-5{mix-blend-mode:overlay;}.cls-4{fill:url(#linear-gradient-2);}.cls-5{opacity:0.8;}.cls-6{fill:url(#linear-gradient-3);}.cls-7{fill:url(#linear-gradient-4);}.cls-8{opacity:0.2;fill:url(#linear-gradient-5);}</style><linearGradient id="linear-gradient" x1="16.22" y1="96.93" x2="104.66" y2="96.93" gradientUnits="userSpaceOnUse"><stop offset="0" stop-color="#650c00"/><stop offset="1" stop-color="#e20613"/></linearGradient><linearGradient id="linear-gradient-2" x1="20.44" y1="96.93" x2="100.44" y2="96.93" gradientUnits="userSpaceOnUse"><stop offset="0" stop-color="#fff" stop-opacity="0"/><stop offset="0.16" stop-color="#fff" stop-opacity="0.01"/><stop offset="0.29" stop-color="#fff" stop-opacity="0.05"/><stop offset="0.41" stop-color="#fff" stop-opacity="0.12"/><stop offset="0.52" stop-color="#fff" stop-opacity="0.21"/><stop offset="0.63" stop-color="#fff" stop-opacity="0.33"/><stop offset="0.74" stop-color="#fff" stop-opacity="0.48"/><stop offset="0.84" stop-color="#fff" stop-opacity="0.66"/><stop offset="0.94" stop-color="#fff" stop-opacity="0.86"/><stop offset="1" stop-color="#fff"/></linearGradient><linearGradient id="linear-gradient-3" x1="19.5" y1="96.93" x2="101.37" y2="96.93" gradientUnits="userSpaceOnUse"><stop offset="0" stop-color="#e20613" stop-opacity="0"/><stop offset="0.28" stop-color="#e20613" stop-opacity="0"/><stop offset="0.5" stop-color="#ec5a62" stop-opacity="0.34"/><stop offset="0.74" stop-color="#f6b2b6" stop-opacity="0.69"/><stop offset="0.92" stop-color="#fce9eb" stop-opacity="0.91"/><stop offset="1" stop-color="#fff"/></linearGradient><linearGradient id="linear-gradient-4" x1="249.78" y1="-284.48" x2="268.17" y2="-284.48" gradientTransform="matrix(0.86, 0.5, 0.5, -0.86, 4.43, -246.4)" gradientUnits="userSpaceOnUse"><stop offset="0" stop-color="#fff" stop-opacity="0"/><stop offset="0.15" stop-color="#fff" stop-opacity="0.23"/><stop offset="0.32" stop-color="#fff" stop-opacity="0.46"/><stop offset="0.48" stop-color="#fff" stop-opacity="0.65"/><stop offset="0.64" stop-color="#fff" stop-opacity="0.8"/><stop offset="0.78" stop-color="#fff" stop-opacity="0.91"/><stop offset="0.91" stop-color="#fff" stop-opacity="0.98"/><stop offset="1" stop-color="#fff"/></linearGradient><linearGradient id="linear-gradient-5" x1="664.1" y1="887.84" x2="675.62" y2="887.84" gradientTransform="matrix(-0.82, -0.58, -0.58, 0.82, 1107.3, -265.66)" gradientUnits="userSpaceOnUse"><stop offset="0" stop-color="#fff" stop-opacity="0"/><stop offset="0.03" stop-color="#fff" stop-opacity="0.1"/><stop offset="0.1" stop-color="#fff" stop-opacity="0.29"/><stop offset="0.17" stop-color="#fff" stop-opacity="0.46"/><stop offset="0.24" stop-color="#fff" stop-opacity="0.6"/><stop offset="0.32" stop-color="#fff" stop-opacity="0.73"/><stop offset="0.41" stop-color="#fff" stop-opacity="0.83"/><stop offset="0.51" stop-color="#fff" stop-opacity="0.9"/><stop offset="0.62" stop-color="#fff" stop-opacity="0.96"/><stop offset="0.76" stop-color="#fff" stop-opacity="0.99"/><stop offset="1" stop-color="#fff"/></linearGradient></defs><title>blood-drop</title><g class="cls-1"><g id="Objects"><path class="cls-2" d="M104.66,121.65a44.22,44.22,0,0,1-88.44,0C16.22,97.22,60.44,28,60.44,28S104.66,97.22,104.66,121.65Z"/><g class="cls-3"><path class="cls-4" d="M100.44,119.29a40,40,0,0,1-80,0c0-22.09,40-84.7,40-84.7S100.44,97.2,100.44,119.29Z"/></g><g class="cls-5"><path class="cls-6" d="M101.37,119.81a40.94,40.94,0,0,1-81.87,0c0-22.61,40.94-86.69,40.94-86.69S101.37,97.2,101.37,119.81Z"/></g><path class="cls-7" d="M77,131.31S60.17,140.73,70.23,149c10.86,8.93,23.17-11.08,23.13-25.61,0-12.93-.92-16.43-2.34-17.06S90,123.4,77,131.31Z"/><path class="cls-8" d="M52.62,72.62s11-5,5.17-10.68c-6.3-6.15-15.05,5.67-15.8,14.74-.67,8.08-.31,10.3.55,10.77S44.1,76.86,52.62,72.62Z"/></g></g></svg>